<svg xmlns="http://www.w3.org/2000/svg" version="1.0" preserveAspectRatio="xMidYMid meet" viewBox="980.69 605.5 2303.32 2586.7">

<g transform="translate(0.000000,4000.000000) scale(0.100000,-0.100000)" fill="#ffffff" stroke="none">
<path d="M27211 33535 c-627 -1569 -1104 -2512 -1611 -3185 -526 -697 -1095 -1131 -1860 -1418 -661 -248 -1512 -383 -2735 -432 l-270 -11 -4385 855 c-2412 470 -4412 860 -4444 865 -169 31 -407 -9 -578 -95 -230 -115 -403 -308 -494 -550 -13 -36 -118 -549 -248 -1216 -124 -634 -350 -1790 -502 -2568 -267 -1364 -277 -1419 -277 -1535 -1 -124 10 -194 45 -305 90 -282 316 -521 591 -625 44 -16 649 -139 1733 -350 915 -179 1669 -325 1674 -325 5 0 -13 -29 -40 -65 -62 -81 -120 -202 -156 -320 -26 -83 -28 -104 -28 -260 l0 -170 102 -389 c57 -213 101 -390 99 -393 -3 -2 -443 80 -978 184 -962 185 -976 187 -1099 186 -157 -2 -281 -32 -426 -103 -237 -115 -421 -322 -503 -566 -11 -32 -239 -1206 -508 -2609 l-488 -2550 1 -160 c0 -144 3 -169 28 -250 56 -186 131 -312 265 -446 104 -103 235 -185 366 -228 57 -18 487 -105 1180 -237 600 -114 1092 -209 1095 -211 9 -8 -233 -238 -335 -319 -492 -390 -1184 -717 -2480 -1170 -110 -38 -110 -38 -70 -45 22 -4 177 -12 345 -19 526 -19 1180 -76 1505 -130 1106 -186 1705 -537 2210 -1300 130 -195 194 -307 310 -540 86 -172 213 -451 263 -580 13 -33 57 -252 108 -544 46 -269 92 -521 100 -559 71 -342 369 -646 719 -738 50 -13 127 -23 205 -26 l125 -5 2570 451 c1414 248 4277 750 6362 1116 4171 731 3875 674 4055 781 160 96 326 288 398 461 58 139 73 214 74 373 l1 145 -448 2545 c-463 2632 -464 2636 -536 2778 -94 186 -275 355 -479 449 -136 62 -217 78 -397 78 l-160 0 -1035 -183 c-569 -100 -1049 -185 -1066 -188 l-31 -6 99 514 c89 464 98 524 99 633 0 134 -17 235 -61 356 l-28 77 97 25 c53 14 812 211 1686 437 1693 438 1669 431 1816 530 294 199 474 586 430 927 -6 45 -287 1152 -626 2459 -338 1308 -615 2381 -615 2386 0 21 349 171 566 243 564 188 1240 304 2109 360 453 29 701 36 1455 42 415 3 748 8 740 11 -54 17 -878 348 -1075 432 -839 358 -1513 688 -1965 963 -292 178 -641 430 -850 614 -993 874 -1408 1940 -1530 3923 -25 408 -33 694 -39 1390 l-6 745 -164 -410z m-10991 -4734 c2395 -468 4373 -857 4395 -864 22 -8 141 -60 265 -115 1214 -540 1981 -1015 2535 -1567 134 -134 299 -325 397 -462 72 -101 221 -333 216 -338 -2 -2 -2101 -546 -4663 -1209 l-4660 -1206 -1975 385 c-1086 212 -1997 390 -2025 396 -173 40 -306 184 -336 365 -10 61 -9 84 10 184 115 605 965 4946 976 4981 20 70 42 107 98 166 94 99 207 146 337 139 42 -3 1987 -378 4430 -855z m8080 -3918 c248 -650 383 -1468 440 -2653 8 -176 26 -1041 33 -1640 l2 -185 29 80 c155 425 560 1384 794 1881 581 1231 1127 1995 1785 2496 43 33 81 58 84 55 11 -12 1184 -4562 1189 -4616 17 -159 -93 -346 -246 -419 -46 -21 -593 -167 -1869 -497 l-1804 -466 -56 24 c-31 14 -78 32 -106 41 -27 8 -1823 353 -3990 766 -6015 1147 -6138 1170 -6143 1175 -2 2 -62 228 -134 502 -125 482 -129 501 -125 585 3 75 8 96 40 160 43 87 119 168 192 203 28 13 102 38 165 55 132 36 9682 2508 9692 2509 4 1 16 -25 28 -56z m-6195 -5228 c3449 -657 6290 -1202 6314 -1210 104 -35 207 -127 254 -228 31 -64 51 -168 43 -222 -17 -110 -229 -1211 -234 -1216 -4 -4 -2169 -386 -4812 -849 -2643 -463 -4814 -843 -4825 -846 -16 -3 -35 17 -91 94 -342 467 -665 1165 -1049 2272 -38 107 -72 199 -76 205 -5 5 -9 -31 -9 -81 0 -117 -26 -645 -45 -904 -60 -816 -168 -1396 -342 -1840 -53 -134 -119 -270 -132 -270 -17 0 -2317 440 -2380 455 -91 23 -153 57 -216 121 -80 82 -118 166 -123 274 -3 79 31 264 477 2600 264 1383 487 2534 495 2558 35 97 125 196 225 247 51 26 150 45 206 40 28 -3 2872 -543 6320 -1200z m9325 -2956 c157 -25 300 -153 346 -308 24 -82 894 -5069 894 -5125 0 -180 -144 -363 -322 -409 -125 -33 -12600 -2217 -12662 -2217 -192 0 -362 123 -416 300 -10 30 -62 308 -116 618 l-98 563 22 187 c153 1299 531 1998 1376 2546 462 300 1080 574 2126 942 l195 69 -130 7 c-71 4 -278 14 -460 23 -1139 55 -1851 181 -2394 423 -129 59 -235 118 -375 211 -98 64 -99 66 -70 74 21 5 11559 2033 11929 2096 70 12 82 12 155 0z"/>
</g>
</svg>